<?xml version="1.0" standalone="no"?><!DOCTYPE svg PUBLIC "-//W3C//DTD SVG 1.1//EN" "http://www.w3.org/Graphics/SVG/1.1/DTD/svg11.dtd"><svg t="1533447914538" class="icon" style="" viewBox="0 0 1024 1024" version="1.1" xmlns="http://www.w3.org/2000/svg" p-id="3495" xmlns:xlink="http://www.w3.org/1999/xlink" width="200" height="200"><defs><style type="text/css"></style></defs><path d="M706.473 12.899l-463.018 462.133c-8.6 8.589-12.904 19.866-12.904 31.143s4.305 22.552 12.904 31.143l474.689 473.788c8.333 8.318 19.415 12.894 31.204 12.894s22.866-4.581 31.199-12.899c17.204-17.169 17.205-45.107 0-62.281l-443.49-442.646 431.82-430.995c8.333-8.318 12.92-19.38 12.92-31.143s-4.586-22.825-12.92-31.143c-8.333-8.313-19.415-12.894-31.204-12.894-11.785 0-22.867 4.581-31.2 12.899z" fill="#515151" p-id="3496"></path></svg>