<?xml version="1.0" standalone="no"?><!DOCTYPE svg PUBLIC "-//W3C//DTD SVG 1.1//EN" "http://www.w3.org/Graphics/SVG/1.1/DTD/svg11.dtd"><svg t="1533449376792" class="icon" style="" viewBox="0 0 1026 1024" version="1.1" xmlns="http://www.w3.org/2000/svg" p-id="6286" xmlns:xlink="http://www.w3.org/1999/xlink" width="200.390625" height="200"><defs><style type="text/css"></style></defs><path d="M1004.340657 909.84119L797.216038 702.664718c53.871487-73.187801 85.73129-163.523057 85.73129-261.161637C882.946331 198.056292 684.892033 0 441.479148 0 198.055295 0 0 198.056292 0 441.503081s198.055295 441.503081 441.479148 441.50308c97.620631 0 187.951898-31.867781 261.133717-85.734281l207.171486 207.125616c13.110882 13.105896 30.220444 19.60749 47.333995 19.60749 17.108565 0 34.223112-6.502591 47.221313-19.60749 26.115067-26.110081 26.115067-68.447222 0.000998-94.556306zM108.668354 441.503081c0-183.531413 149.279382-332.839713 332.810794-332.839713 183.526427 0 332.804811 149.307303 332.804812 332.839713 0 183.502494-149.278385 332.781876-332.804812 332.781876-183.531413 0-332.810794-149.279382-332.810794-332.781876z" fill="#515151" p-id="6287"></path></svg>