<?xml version="1.0" standalone="no"?><!DOCTYPE svg PUBLIC "-//W3C//DTD SVG 1.1//EN" "http://www.w3.org/Graphics/SVG/1.1/DTD/svg11.dtd"><svg t="1533260041266" class="icon" style="" viewBox="0 0 1024 1024" version="1.1" xmlns="http://www.w3.org/2000/svg" p-id="6817" xmlns:xlink="http://www.w3.org/1999/xlink" width="200" height="200"><defs><style type="text/css"></style></defs><path d="M415.471 206.755h199.285c24.953 0 45.421-20.448 45.421-45.448v-47.835c0-25-20.468-45.448-45.421-45.448H415.471c-24.988 0-45.421 20.448-45.421 45.448v47.835c0 25 20.433 45.448 45.421 45.448z m0-93.283h199.285v47.835H415.471v-47.835z m82.693 799.253H319.599c-58.598 0-106.28-48.439-106.28-107.899V280.738c0-40.289 10.058-107.904 77.442-107.904 12.761 0 23.107-10.35 23.107-23.119 0-12.771-10.345-23.124-23.107-23.124-76.264 0-123.658 59.049-123.658 154.147v524.088c0 84.97 68.434 154.144 152.528 154.144h178.565c12.761-0.01 23.102-10.37 23.092-23.139-0.007-12.771-10.362-23.113-23.124-23.106z m244.071-786.101c-12.761 0-23.107 10.353-23.107 23.122s10.345 23.122 23.107 23.122c17.792 0 71.84 0 71.84 107.901v393.704c0 6.912-29.825 17.23-45.485 17.23H633.568c-39.948 0-70.025 30.414-70.025 70.798v120.67c0 33.284 8.083 54.62 24.731 65.258 7.607 4.874 15.534 6.592 23.077 6.592 13.497 0 25.434-5.54 31.226-8.248 30.206-14.046 137.375-125.002 170.002-164.177 39.722-47.674 47.743-76.147 47.743-106.53V280.738c0.001-97.932-43.034-154.114-118.087-154.114z m34.853 626.352c-40.262 48.345-136.677 143.41-153.991 151.817a47.624 47.624 0 0 1-9.996 3.728c-1.208-2.77-3.342-9.872-3.342-25.384v-120.67c0-11.816 7.449-24.555 23.842-24.555h135.021c4.617 0 12.764-0.701 22.344-2.644-3.914 5.385-8.531 11.277-13.878 17.708z m-65.156-415.493H308.617c-12.761-0.007-23.114 10.335-23.124 23.107-0.01 12.769 10.33 23.129 23.092 23.136h403.346c12.764-0.668 22.567-11.566 21.896-24.335-0.618-11.833-10.067-21.287-21.895-21.908zM308.617 545.239c-12.771 0-23.124 10.36-23.124 23.139 0 12.776 10.353 23.136 23.124 23.136h403.314c12.774-0.475 22.74-11.219 22.267-23.998-0.448-12.113-10.16-21.829-22.267-22.277H308.617z" p-id="6818" fill="#707070"></path></svg>