<?xml version="1.0" standalone="no"?><!DOCTYPE svg PUBLIC "-//W3C//DTD SVG 1.1//EN" "http://www.w3.org/Graphics/SVG/1.1/DTD/svg11.dtd"><svg t="1533213719745" class="icon" style="" viewBox="0 0 1024 1024" version="1.1" xmlns="http://www.w3.org/2000/svg" p-id="2001" xmlns:xlink="http://www.w3.org/1999/xlink" width="200" height="200"><defs><style type="text/css"></style></defs><path d="M1020.928614 601.088c-8.192 15.36-26.624 33.792-84.992 73.728-18.432 12.288-37.888 40.96-40.96 62.464-4.096 27.648 4.096 53.248 14.336 92.16 7.168 28.672 13.312 72.704 3.072 99.328-4.096 10.24-17.408 12.288-22.528 2.048-13.312-29.696-28.672-69.632-76.8-77.824-48.128-4.096-66.56 29.696-67.584 74.752 0 14.336-15.36 18.432-26.624 7.168-13.312-13.312-24.576-32.768-32.768-83.968-11.264-64.512 6.144-95.232-21.504-115.712-19.456-14.336-102.4-25.6-140.288-67.584-7.168-8.192-2.048-19.456 8.192-20.48 45.056-6.144 122.88 17.408 253.952 2.048 97.28-12.288 174.08-58.368 216.064-72.704 14.336-6.144 27.648 7.168 18.432 24.576m-236.544 21.504c-45.056 9.216-103.424-16.384-113.664-62.464s33.792-96.256 78.848-104.448c45.056-9.216 89.088 21.504 99.328 67.584 9.216 45.056-19.456 90.112-64.512 99.328z m-163.84-28.672c-8.192 1.024-17.408-4.096-25.6-10.24-43.008-33.792-119.808-140.288-150.528-10.24-13.312 99.328 3.072 176.128 137.216 343.04 6.144 7.168 7.168 22.528-5.12 23.552-13.312 1.024-27.648-7.168-27.648-7.168-43.008-19.456-71.68-52.224-133.12-112.64-52.224-51.2-105.472-63.488-114.688-1.024 0 3.072-1.024 6.144-1.024 9.216 0 38.912 1.024 75.776 4.096 102.4 2.048 15.36-18.432 23.552-28.672 11.264-46.08-58.368-101.376-198.656-94.208-410.624 0-36.864-36.864-40.96-145.408 89.088-30.72 37.888-57.344 16.384-10.24-86.016 0 0 103.424-207.872 316.416-202.752 148.48 13.312 228.352 124.928 277.504 224.256 5.12 9.216 8.192 17.408 10.24 22.528 2.048 8.192-3.072 15.36-9.216 15.36zM371.712614 293.888c-58.368-8.192-108.544-58.368-102.4-119.808 5.12-61.44 57.344-106.496 116.736-101.376 59.392 5.12 107.52 58.368 97.28 118.784-12.288 72.704-54.272 110.592-111.616 102.4z" fill="#f36a8b" p-id="2002"></path></svg>