<?xml version="1.0" standalone="no"?><!DOCTYPE svg PUBLIC "-//W3C//DTD SVG 1.1//EN" "http://www.w3.org/Graphics/SVG/1.1/DTD/svg11.dtd"><svg t="1533198887490" class="icon" style="" viewBox="0 0 1024 1024" version="1.1" xmlns="http://www.w3.org/2000/svg" p-id="18486" xmlns:xlink="http://www.w3.org/1999/xlink" width="200" height="200"><defs><style type="text/css"></style></defs><path d="M512 961.99c-248.518 0-449.99-201.473-449.99-449.99s201.473-449.99 449.99-449.99 449.979 201.473 449.979 449.99-201.462 449.99-449.979 449.99zM392.040 751.846h253.896v-223.762c-24.204-2.957-45.777-12.401-63.449-26.523l7.693 5.644h-0.031l0.010 0.010c-5.645 3.804-11.626 7.208-17.843 10.082l0.102-0.062c-40.388 18.701-88.313 14.693-124.55-10.031-18.372 12.582-40.816 20.516-65.038 21.662l9.21 222.981zM590.15 354.035c-36.637-43.793-105.685-43.722-142.28 0-52.423-62.71-162.474-29.427-162.474 55.225 0 84.683 110.082 117.924 162.474 55.184 36.595 43.763 105.645 43.793 142.28 0 52.352 62.679 162.464 29.468 162.464-55.184s-110.143-117.883-162.464-55.225z" fill="#1296db" p-id="18487"></path></svg>