<?xml version="1.0" standalone="no"?><!DOCTYPE svg PUBLIC "-//W3C//DTD SVG 1.1//EN" "http://www.w3.org/Graphics/SVG/1.1/DTD/svg11.dtd"><svg t="1533214360084" class="icon" style="" viewBox="0 0 1024 1024" version="1.1" xmlns="http://www.w3.org/2000/svg" p-id="4215" xmlns:xlink="http://www.w3.org/1999/xlink" width="200" height="200"><defs><style type="text/css"></style></defs><path d="M471.550936 779.176715h-48.964657c-12.773389 0-23.417879 10.644491-23.41788 23.41788v85.155925c0 12.773389 10.644491 23.417879 23.41788 23.417879h48.964657c12.773389 0 23.417879-10.644491 23.417879-23.417879v-85.155925c0-12.773389-10.644491-23.417879-23.417879-23.41788z m131.991684 0h-48.964657c-12.773389 0-23.417879 10.644491-23.41788 23.41788v85.155925c0 12.773389 10.644491 23.417879 23.41788 23.417879h48.964657c12.773389 0 23.417879-10.644491 23.417879-23.417879v-85.155925c0-12.773389-10.644491-23.417879-23.417879-23.41788z m291.659043 244.823285h-766.403326c-29.804574 0-55.351351-25.546778-55.351352-55.351351 0-29.804574 25.546778-55.351351 55.351352-55.351352h27.675675v-155.409563c-53.222453-29.804574-85.155925-68.12474-12.773388-104.316008 17.031185-8.515593 34.06237-14.902287 51.093555-19.160084v-100.058212c-48.964657-25.546778-76.640333-61.738046-10.644491-93.671517 29.804574-12.773389 59.609148-21.288981 91.54262-27.675676v-87.284823c-36.191268-19.160083-57.480249-46.835759-8.515593-70.253639 19.160083-8.515593 38.320166-14.902287 59.609148-19.160083 59.609148-14.902287 114.960499-46.835759 161.796258-89.413721v-117.089397c0-14.902287 12.773389-29.804574 29.804573-29.804574 14.902287 0 29.804574 12.773389 29.804574 29.804574v117.089397c44.706861 42.577963 100.058212 74.511435 161.796258 89.413721 21.288981 4.257796 40.449064 10.644491 59.609148 19.160083 48.964657 23.417879 27.675676 51.093555-8.515593 70.253639v87.284823c31.933472 4.257796 61.738046 14.902287 91.54262 27.675676 63.866944 31.933472 36.191268 68.12474-12.773389 93.671517v100.058212c17.031185 4.257796 34.06237 10.644491 51.093555 19.160084 72.382536 36.191268 40.449064 76.640333-12.773389 104.316008v155.409563h27.675676c29.804574 0 55.351351 25.546778 55.351351 55.351352-10.644491 29.804574-36.191268 55.351351-65.995842 55.351351z" p-id="4216" fill="#1296db"></path></svg>