<?xml version="1.0" standalone="no"?><!DOCTYPE svg PUBLIC "-//W3C//DTD SVG 1.1//EN" "http://www.w3.org/Graphics/SVG/1.1/DTD/svg11.dtd"><svg t="1533370205848" class="icon" style="" viewBox="0 0 1024 1024" version="1.1" xmlns="http://www.w3.org/2000/svg" p-id="14671" xmlns:xlink="http://www.w3.org/1999/xlink" width="200" height="200"><defs><style type="text/css"></style></defs><path d="M759.2 61.7H215.3c-47.4 0-85.9 40.1-85.9 89.5V867c0 49.4 38.4 89.5 85.9 89.5h350.3c-0.4-6.8-0.5-16.4-0.5-29.8V762.6c0-76.7 35.6-111.8 108.2-111.8H845V151.2c0.1-49.4-38.4-89.5-85.8-89.5zM464.8 688.1h-179c-12.4 0-22.4-10-22.4-22.4 0-12.4 10-22.4 22.4-22.4h179c12.4 0 22.4 10 22.4 22.4-0.1 12.4-10.1 22.4-22.4 22.4z m223.7-111.9H285.8c-12.4 0-22.4-10-22.4-22.4 0-12.4 10-22.4 22.4-22.4h402.7c12.4 0 22.4 10 22.4 22.4-0.1 12.4-10.1 22.4-22.4 22.4z m0-111.8H285.8c-12.4 0-22.4-10-22.4-22.4 0-12.4 10-22.4 22.4-22.4h402.7c12.4 0 22.4 10 22.4 22.4-0.1 12.4-10.1 22.4-22.4 22.4z m0-111.9H285.8c-12.4 0-22.4-10-22.4-22.4 0-12.4 10-22.4 22.4-22.4h402.7c12.4 0 22.4 10 22.4 22.4-0.1 12.4-10.1 22.4-22.4 22.4z m-72.4 410.1v193.9c30.2-33 214.5-237.1 229-253.5H673.3c-31.6 0-57.2 26.7-57.2 59.6z" fill="#ED6F1C" p-id="14672"></path></svg>