<?xml version="1.0" standalone="no"?><!DOCTYPE svg PUBLIC "-//W3C//DTD SVG 1.1//EN" "http://www.w3.org/Graphics/SVG/1.1/DTD/svg11.dtd"><svg t="1533369956094" class="icon" style="" viewBox="0 0 1024 1024" version="1.1" xmlns="http://www.w3.org/2000/svg" p-id="4961" xmlns:xlink="http://www.w3.org/1999/xlink" width="200" height="200"><defs><style type="text/css"></style></defs><path d="M352 384v96h320v32H352s-224 2.24-224 0a128 128 0 0 0-128-128V224a128 128 0 0 1 128-128h768a128 128 0 0 1 128 128v160a128 128 0 0 0-128 128c0 2.24-224 0-224 0v-128m0 256v-96H352v-32h320s224-2.24 224 0a128 128 0 0 0 128 128v160a128 128 0 0 1-128 128H128a128 128 0 0 1-128-128v-160a128 128 0 0 0 128-128c0-2.24 224 0 224 0v128" p-id="4962" fill="#ED6F1C"></path></svg>