<?xml version="1.0" standalone="no"?><!DOCTYPE svg PUBLIC "-//W3C//DTD SVG 1.1//EN" "http://www.w3.org/Graphics/SVG/1.1/DTD/svg11.dtd"><svg t="1533259922664" class="icon" style="" viewBox="0 0 1110 1024" version="1.1" xmlns="http://www.w3.org/2000/svg" p-id="5356" xmlns:xlink="http://www.w3.org/1999/xlink" width="216.796875" height="200"><defs><style type="text/css"></style></defs><path d="M554.666667 1002.666667C283.669333 1002.666667 64 782.997333 64 512S283.669333 21.333333 554.666667 21.333333s490.666667 219.669333 490.666667 490.666667S825.664 1002.666667 554.666667 1002.666667zM554.666667 64C307.242667 64 106.666667 264.576 106.666667 512c0 247.424 200.576 448 448 448 247.424 0 448-200.576 448-448C1002.666667 264.576 802.090667 64 554.666667 64zM309.333333 757.333333l128-362.666667 362.666667-128-128 362.666667L309.333333 757.333333zM469.333333 426.666667l-106.666667 277.333333 277.333333-106.666667 106.666667-277.333333L469.333333 426.666667zM554.666667 554.666667c-23.573333 0-42.666667-19.093333-42.666667-42.666667 0-23.573333 19.093333-42.666667 42.666667-42.666667 23.573333 0 42.666667 19.093333 42.666667 42.666667C597.333333 535.573333 578.24 554.666667 554.666667 554.666667z" p-id="5357" fill="#707070"></path></svg>