<?xml version="1.0" standalone="no"?><!DOCTYPE svg PUBLIC "-//W3C//DTD SVG 1.1//EN" "http://www.w3.org/Graphics/SVG/1.1/DTD/svg11.dtd"><svg t="1533303867555" class="icon" style="" viewBox="0 0 1024 1024" version="1.1" xmlns="http://www.w3.org/2000/svg" p-id="628" xmlns:xlink="http://www.w3.org/1999/xlink" width="200" height="200"><defs><style type="text/css"></style></defs><path d="M279.13 938.548c-37.696 0-68.255-30.559-68.255-68.255 0-1.421 0.045-2.842 0.134-4.26l13.768-220.116L82.263 470.441c-23.755-29.262-19.291-72.242 9.972-95.997a68.235 68.235 0 0 1 26.752-13.295l215.5-52.867 119.682-190.837c20.019-31.929 62.132-41.585 94.062-21.565a68.248 68.248 0 0 1 21.564 21.564l119.69 190.819 215.5 52.885c36.604 8.969 59.007 45.912 50.038 82.515a68.252 68.252 0 0 1-13.314 26.787L799.206 645.917l13.341 213.24c6.077 37.278-19.216 72.424-56.494 78.5a68.369 68.369 0 0 1-10.861 0.89 2.886 2.886 0 0 1-0.348 0 68.303 68.303 0 0 1-24.317-4.447l-208.535-79.515-208.536 79.488a68.184 68.184 0 0 1-24.316 4.447l-0.01 0.028z" fill="#F5A917" p-id="629"></path></svg>