<?xml version="1.0" standalone="no"?><!DOCTYPE svg PUBLIC "-//W3C//DTD SVG 1.1//EN" "http://www.w3.org/Graphics/SVG/1.1/DTD/svg11.dtd"><svg t="1533370075264" class="icon" style="" viewBox="0 0 1024 1024" version="1.1" xmlns="http://www.w3.org/2000/svg" p-id="9678" xmlns:xlink="http://www.w3.org/1999/xlink" width="200" height="200"><defs><style type="text/css"></style></defs><path d="M512 73.984C264.864 73.984 63.808 270.464 63.808 512c0 66.016 15.52 132.064 44.928 191.36v172.736a30.08 30.08 0 0 0 30.016 30.048h197.056a30.144 30.144 0 0 0 16.32 15.168c51.232 19.008 105.024 28.672 159.776 28.672 247.232 0 448.32-196.48 448.32-438.016S759.2 73.984 512 73.984z m-109.6 455.424c0 28.608-23.776 51.872-53.152 51.872-29.312-0.032-53.12-23.296-53.088-51.936l-0.032-0.064c0-28.672 23.808-51.872 53.184-51.872 29.344 0 53.12 23.264 53.088 51.936v0.064z m180 0c0 28.608-23.872 51.872-53.184 51.872-29.344-0.032-53.152-23.296-53.152-51.936v-0.064c0.032-28.672 23.84-51.872 53.184-51.872s53.152 23.264 53.152 51.936v0.064z m126.752 51.84c-29.376 0-53.152-23.264-53.152-51.904 0-28.672 23.776-51.936 53.152-51.936 29.408 0 53.184 23.264 53.184 51.936 0 28.608-23.776 51.904-53.184 51.904z" p-id="9679" fill="#ED6F1C"></path></svg>