<?xml version="1.0" standalone="no"?><!DOCTYPE svg PUBLIC "-//W3C//DTD SVG 1.1//EN" "http://www.w3.org/Graphics/SVG/1.1/DTD/svg11.dtd"><svg t="1533374932713" class="icon" style="" viewBox="0 0 1024 1024" version="1.1" xmlns="http://www.w3.org/2000/svg" p-id="11198" xmlns:xlink="http://www.w3.org/1999/xlink" width="200" height="200"><defs><style type="text/css"></style></defs><path d="M 512.532 61.5662 c -247.676 0 -448.44 200.767 -448.44 448.442 c 0 247.66 200.764 448.442 448.44 448.442 c 247.676 0 448.444 -200.784 448.444 -448.442 C 960.977 262.334 760.209 61.5662 512.532 61.5662 Z M 503.16 462.468 l -0.033769 -18.8483 c 0 20.811 -16.8518 37.6976 -37.6781 37.6976 l 0 112.949 c 0 0.035816 0.033769 0.035816 0.033769 0.035816 l 0 150.683 c 0 10.4244 -8.42386 18.8483 -18.8299 18.8483 L 408.988 763.834 c -10.406 0 -18.8483 -8.42386 -18.8483 -18.8483 l 0 -37.6607 l -0.033769 -226.007 c -20.7772 0 -37.5738 -16.8334 -37.6638 -37.5922 l 0.052189 -169.603 l 37.6106 0 l 0 150.682 l 18.8831 0 l 0 -150.682 l 37.6638 0 l 0 150.682 l 18.8299 0 l 0 -150.682 l 37.6781 0 L 503.16 462.468 Z M 672.623 744.985 c 0 10.405 -8.37167 18.8145 -18.7961 18.8145 L 616.167 763.8 c -10.3907 0 -18.834 -8.40953 -18.834 -18.8145 L 597.333 537.791 l -37.6781 0 L 559.655 330.616 c 0 -31.1996 25.2961 -56.4937 56.5131 -56.4937 c 31.1975 0 56.4558 25.2941 56.4558 56.4937 L 672.624 744.985 Z" fill="#ED6F1C" p-id="11199"></path></svg>