<?xml version="1.0" standalone="no"?><!DOCTYPE svg PUBLIC "-//W3C//DTD SVG 1.1//EN" "http://www.w3.org/Graphics/SVG/1.1/DTD/svg11.dtd"><svg t="1533281640705" class="icon" style="" viewBox="0 0 1229 1024" version="1.1" xmlns="http://www.w3.org/2000/svg" p-id="2712" xmlns:xlink="http://www.w3.org/1999/xlink" width="240.0390625" height="200"><defs><style type="text/css"></style></defs><path d="M614.4 1024C897.169792 1024 1126.4 794.769792 1126.4 512 1126.4 229.230208 897.169792 0 614.4 0 331.630208 0 102.4 229.230208 102.4 512 102.4 794.769792 331.630208 1024 614.4 1024L614.4 1024 614.4 1024 614.4 1024 614.4 1024ZM489.980033 417.696481C494.521693 405.605286 507.967479 392.135894 520.096481 387.580033L826.793021 272.379532C850.876493 263.333367 863.080397 275.486863 854.02047 299.606979L738.819968 606.303519C734.278308 618.394716 720.832522 631.864105 708.703519 636.419968L402.006979 751.62047C377.92351 760.666634 365.719602 748.513137 374.779532 724.393021L489.980033 417.696481 489.980033 417.696481 489.980033 417.696481ZM614.4 558.545454C640.106342 558.545454 660.945454 537.706342 660.945454 512 660.945454 486.293655 640.106342 465.454545 614.4 465.454545 588.693658 465.454545 567.854546 486.293655 567.854546 512 567.854546 537.706342 588.693658 558.545454 614.4 558.545454L614.4 558.545454 614.4 558.545454 614.4 558.545454 614.4 558.545454Z" p-id="2713" fill="#1aaba8"></path></svg>