<?xml version="1.0" standalone="no"?><!DOCTYPE svg PUBLIC "-//W3C//DTD SVG 1.1//EN" "http://www.w3.org/Graphics/SVG/1.1/DTD/svg11.dtd"><svg t="1533282003809" class="icon" style="" viewBox="0 0 1024 1024" version="1.1" xmlns="http://www.w3.org/2000/svg" p-id="12860" xmlns:xlink="http://www.w3.org/1999/xlink" width="200" height="200"><defs><style type="text/css"></style></defs><path d="M1013.472832 471.431092l-41.082993-41.082993L564.981906 22.712166A77.572987 77.572987 0 0 0 510.546915 0.00217a75.219988 75.219988 0 0 0-54.320991 22.595996L50.301992 428.978099c-0.571 0.457-1.028 0.914-1.598 1.427L8.304999 470.747092a28.714995 28.714995 0 0 0 0 40.397993l6.847998 6.846999a28.714995 28.714995 0 0 0 40.397994 0l16.546997-16.546997 0.115 0.114L492.629918 81.027157a25.334996 25.334996 0 0 1 17.916997-7.302999c11.868998 0.228 17.916997 7.302999 17.916997 7.302999L925.599846 478.280091l0.114 0.114 21.682997 21.682996 1.426999 1.426 17.231998 17.231997a28.729995 28.729995 0 0 0 40.397993 0l6.960999-6.960999a28.529995 28.529995 0 0 0 0.115-40.283993z m0 0" fill="#707070" p-id="12861"></path><path d="M902.89085 503.500086a28.615995 28.615995 0 0 0-28.529995-28.529995h-9.984998a28.615995 28.615995 0 0 0-28.529996 28.529995v12.323998l-1.027-0.342a44.463993 44.463993 0 0 1 1.027 9.585999v390.175935a45.775992 45.775992 0 0 1-45.647992 45.647992H589.289902v60.36999l222.304963 0.227a91.566985 91.566985 0 0 0 91.295985-91.295984z m-718.269881 411.743932V523.927083a49.584992 49.584992 0 0 1 1.027-8.330999l-1.027 0.342v-5.477999a28.615995 28.615995 0 0 0-28.529995-28.529995h-9.814998a28.615995 28.615995 0 0 0-28.529996 28.529995v419.732931a91.566985 91.566985 0 0 0 91.295985 91.295984l222.761963-0.228v-60.36999H230.269962a45.775992 45.775992 0 0 1-45.647993-45.646992z m0 0" fill="#707070" p-id="12862"></path><path d="M656.277891 870.052026c0-77.258987-63.22199-140.366977-140.366977-140.366977h-10.156998c-77.259987 0-140.366977 63.10799-140.366977 140.366977v90.839984h66.302989v-7.531998c0-1.027-0.114-2.168-0.114-3.196V874.560025a78.899987 78.899987 0 0 1 78.742987-78.742987h0.228a78.899987 78.899987 0 0 1 78.742987 78.742987v75.603987c0 1.427 0 2.968-0.114 4.451v6.276998h67.044989z m0 0" fill="#707070" p-id="12863"></path></svg>