<?xml version="1.0" standalone="no"?><!DOCTYPE svg PUBLIC "-//W3C//DTD SVG 1.1//EN" "http://www.w3.org/Graphics/SVG/1.1/DTD/svg11.dtd"><svg t="1533303819141" class="icon" style="" viewBox="0 0 1024 1024" version="1.1" xmlns="http://www.w3.org/2000/svg" p-id="3602" xmlns:xlink="http://www.w3.org/1999/xlink" width="200" height="200"><defs><style type="text/css"></style></defs><path d="M444.974545 60.509091l-88.901818 192.465454a108.450909 108.450909 0 0 1-74.007272 56.785455l-204.8 29.556364a71.68 71.68 0 0 0-39.563637 121.018181l153.134546 158.021819a95.185455 95.185455 0 0 1 27.229091 84.014545l-37.236364 222.021818a69.818182 69.818182 0 0 0 29.556364 69.818182 64.698182 64.698182 0 0 0 41.890909 12.334546 56.785455 56.785455 0 0 0 34.443636-9.774546L465.454545 899.723636a104.727273 104.727273 0 0 1 43.52-10.938181V18.618182a73.541818 73.541818 0 0 0-64 41.890909z" fill="#F5A917" p-id="3603" data-spm-anchor-id="a313x.7781069.0.i0" class=""></path><path d="M985.6 460.334545a69.818182 69.818182 0 0 0 17.221818-71.68 72.843636 72.843636 0 0 0-56.785454-49.338181l-204.8-32.116364a93.090909 93.090909 0 0 1-74.007273-56.785455l-88.901818-192.465454a93.090909 93.090909 0 0 0-69.818182-39.563636v870.4a104.494545 104.494545 0 0 1 50.269091 10.938181l177.803636 96.349091a80.290909 80.290909 0 0 0 34.443637 9.774546 83.316364 83.316364 0 0 0 41.890909-12.334546 69.818182 69.818182 0 0 0 29.556363-69.818182l-37.003636-222.254545a97.512727 97.512727 0 0 1 27.229091-84.014545z" fill="#DADADA" p-id="3604"></path></svg>