<?xml version="1.0" standalone="no"?><!DOCTYPE svg PUBLIC "-//W3C//DTD SVG 1.1//EN" "http://www.w3.org/Graphics/SVG/1.1/DTD/svg11.dtd"><svg t="1533299026444" class="icon" style="" viewBox="0 0 1024 1024" version="1.1" xmlns="http://www.w3.org/2000/svg" p-id="2210" xmlns:xlink="http://www.w3.org/1999/xlink" width="200" height="200"><defs><style type="text/css"></style></defs><path d="M696.6800000000001 563.48" fill="#1aaba8" p-id="2211"></path><path d="M62.900000000000034 961.0999999999999L62.900000000000034 62l899.0999999999999 0 0 899.0999999999999L62.900000000000034 961.0999999999999zM821.33 182.69000000000005L195.38 182.69000000000005l0 668.2500000000001 54.36000000000001 0 0-35.730000000000004 517.23 0 0 35.099999999999994 54.36000000000001 0L821.33 182.69000000000005zM249.74 232.73000000000002l517.23 0 0 532.2599999999999L249.74 764.99 249.74 232.73000000000002zM295.55 682.73c113.30999999999999-69.38999999999999 198.9-149.04 256.85999999999996-238.95000000000002l0 167.4c0 44.37-19.53 66.50999999999999-58.679999999999986 66.50999999999999-22.409999999999997 0-49.59-1.89-81.53999999999999-5.759999999999998 4.7700000000000005 20.97 8.549999999999997 39.87 11.43 56.519999999999996 28.62 0.99 56.25 1.4399999999999995 82.98 1.4399999999999995 65.79 0 98.73000000000002-34.559999999999995 98.73000000000002-103.77L605.33 408.05l137.34 0 0-48.68999999999999L605.2400000000001 359.36 605.2400000000001 256.4l-52.92 0 0 103.04999999999998L284.75 359.45000000000005l0 48.68999999999999 233.19 0c-61.56 89.63999999999999-147.87 165.24-259.0199999999999 226.79999999999998C274.30999999999995 651.05 286.46 667.0699999999999 295.55 682.73z" fill="#1aaba8" p-id="2212" data-spm-anchor-id="a313x.7781069.0.i0" class=""></path></svg>