<?xml version="1.0" standalone="no"?><!DOCTYPE svg PUBLIC "-//W3C//DTD SVG 1.1//EN" "http://www.w3.org/Graphics/SVG/1.1/DTD/svg11.dtd"><svg t="1533382869484" class="icon" style="" viewBox="0 0 1024 1024" version="1.1" xmlns="http://www.w3.org/2000/svg" p-id="34222" xmlns:xlink="http://www.w3.org/1999/xlink" width="200" height="200"><defs><style type="text/css"></style></defs><path d="M512 2.7C230.5 2.7 2 231.2 2 512.7s228.5 510 510 510 510-228.5 510-510-228.5-510-510-510z m-6.6 249.9c37.2 0 68.9 30.6 68.9 68.9 0 38.8-32.6 70.9-71.9 67.8-34.7-2-62.7-30.1-64.8-64.8-3.1-39.3 29-71.9 67.8-71.9z m252.9 260.1h-2.5l-55.5 233.9c-5.9 20.7-24.1 26.7-33.5 26.7H344.3c-14.7 0-32-11-35.3-28.7l-43.8-230.9h-0.5c-35.2 0-63.2-29.1-61.2-64.8 1.5-31.1 27-56.6 57.6-58.7 35.2-2 64.8 26.5 64.8 61.2 0 14.8-5.6 28.1-14.3 38.8l61.2 55.1c14.3 12.8 37.2 8.2 45.4-9.7L465.1 428c6.6-14.8 21.9-25 38.3-25 16.3 0 31.1 10.2 38.3 25L589 537.7c7.7 17.9 30.1 22.4 44.4 10.7l74-60.7c-8.2-10.2-12.7-23-12.7-37.2 0-34.2 28.1-61.7 61.7-61.7 33.7 0 61.7 28.1 61.7 61.7 2 34.7-26.1 62.2-59.8 62.2z m0 0" p-id="34223" fill="#ED6F1C"></path></svg>