<?xml version="1.0" standalone="no"?><!DOCTYPE svg PUBLIC "-//W3C//DTD SVG 1.1//EN" "http://www.w3.org/Graphics/SVG/1.1/DTD/svg11.dtd"><svg t="1533382061165" class="icon" style="" viewBox="0 0 1034 1024" version="1.1" xmlns="http://www.w3.org/2000/svg" p-id="5865" xmlns:xlink="http://www.w3.org/1999/xlink" width="201.953125" height="200"><defs><style type="text/css"></style></defs><path d="M138.24 380.928L465.408 629.76c13.824 10.752 31.232 16.384 48.128 16.384 17.408 0 34.304-5.63712 48.128-16.384l323.072-246.272 18.43712-14.336v-32.256c0-69.12-55.808-124.928-124.928-124.928H243.712c-69.12 0-124.928 55.808-124.928 124.928v29.184l19.456 14.848z m399.36 222.72c-13.824 10.752-34.304 10.752-48.64 0L154.624 349.696h-0.512v-12.288c0-49.152 39.936-89.088 89.088-89.088h534.528c49.152 0 89.08288 39.936 89.08288 89.088v15.36L537.6 603.648z" p-id="5866" fill="#ffffff"></path><path d="M119.296 449.536v229.888c0 69.12 55.808 124.92288 124.928 124.92288h534.528c69.12 0 124.928-55.80288 124.928-124.92288v-230.4h-35.328v230.4c0 49.152-39.936 89.08288-89.08288 89.08288H244.736c-49.152 0-89.088-39.936-89.088-89.08288V449.536" p-id="5867" fill="#ffffff"></path></svg>