<?xml version="1.0" standalone="no"?><!DOCTYPE svg PUBLIC "-//W3C//DTD SVG 1.1//EN" "http://www.w3.org/Graphics/SVG/1.1/DTD/svg11.dtd"><svg t="1533382943501" class="icon" style="" viewBox="0 0 1024 1024" version="1.1" xmlns="http://www.w3.org/2000/svg" p-id="38289" xmlns:xlink="http://www.w3.org/1999/xlink" width="200" height="200"><defs><style type="text/css"></style></defs><path d="M0 0v1024h1024V0H0z m351.573333 626.346667c-8.533333-6.826667-17.066667-15.36-25.6-22.186667-39.253333-34.133333-75.093333-64.853333-92.16-98.986667-37.546667-68.266667-22.186667-141.653333 39.253334-197.973333 40.96-35.84 134.826667-64.853333 216.746666 11.946667l1.706667 1.706666c8.533333 6.826667 6.826667 20.48 0 27.306667l-18.773333 15.36c-6.826667 6.826667-18.773333 5.12-25.6 0-56.32-54.613333-116.053333-25.6-131.413334-10.24-29.013333 25.6-56.32 66.56-27.306666 121.173333 11.946667 23.893333 46.08 52.906667 80.213333 81.92 8.533333 8.533333 17.066667 15.36 25.6 23.893334 23.893333 22.186667 39.253333 22.186667 46.08 18.773333l1.706667-1.706667 197.973333-170.666666c11.946667-10.24 30.72-11.946667 42.666667 0 13.653333 13.653333 11.946667 34.133333-1.706667 46.08l-199.68 170.666666c-18.773333 17.066667-68.266667 37.546667-129.706667-17.066666z m431.786667-88.746667c-18.773333 30.72-93.866667 102.4-143.36 148.48-8.533333 10.24-25.6 27.306667-46.08 40.96-1.706667 1.706667-3.413333 3.413333-6.826667 5.12-13.653333 8.533333-29.013333 17.066667-44.373333 20.48-52.906667 11.946667-104.106667-51.2-104.106667-51.2 44.373333 23.893333 88.746667-1.706667 112.64-20.48 5.12-5.12 11.946667-10.24 18.773334-17.066667 59.733333-51.2 143.36-136.533333 158.72-160.426666 13.653333-20.48 49.493333-95.573333-37.546667-153.6-34.133333-23.893333-83.626667 6.826667-116.053333 32.426666L443.733333 505.173333c-5.12 5.12-13.653333 8.533333-20.48 8.533334-8.533333 0-17.066667-3.413333-22.186666-10.24-11.946667-11.946667-11.946667-32.426667 1.706666-44.373334l131.413334-122.88s1.706667 0 1.706666-1.706666l5.12-5.12c46.08-37.546667 121.173333-78.506667 187.733334-34.133334 97.28 71.68 97.28 172.373333 54.613333 242.346667z" fill="#ED6F1C" p-id="38290"></path></svg>