<?xml version="1.0" standalone="no"?><!DOCTYPE svg PUBLIC "-//W3C//DTD SVG 1.1//EN" "http://www.w3.org/Graphics/SVG/1.1/DTD/svg11.dtd"><svg t="1533383432096" class="icon" style="" viewBox="0 0 1074 1024" version="1.1" xmlns="http://www.w3.org/2000/svg" p-id="15075" xmlns:xlink="http://www.w3.org/1999/xlink" width="209.765625" height="200"><defs><style type="text/css"></style></defs><path d="M558.115768 83.266938c-245.518818 0-444.550898 199.03208-444.550898 444.550898s199.03208 444.550898 444.550898 444.550898c245.518818 0 444.550898-199.03208 444.550898-444.550898S803.634587 83.266938 558.115768 83.266938zM750.431553 610.559489l-335.773892 0 66.665261 67.877301c7.918116 8.062212 7.918116 21.089086 0 29.149253-7.91505 8.060168-20.711984 8.060168-28.623968 0l-101.221685-103.066315c-3.867082-3.937597-5.933477-9.211912-5.933477-14.573094 0-2.660152 0.488495-5.334611 1.538044-7.894611 3.11901-7.708615 10.529214-12.719265 18.70384-12.719265l384.644854 0c11.176112 0 20.241884 9.213956 20.241884 20.612854C770.673437 601.342467 761.603577 610.559489 750.431553 610.559489zM769.133349 494.195481c-3.133317 7.691242-10.523082 12.719265-18.701796 12.719265L365.786699 506.914747c-11.195529 0-20.24495-9.231329-20.24495-20.61081 0-11.381525 9.049421-20.61592 20.24495-20.61592l335.770826 0-86.90408-88.494244c-7.92016-8.059146-7.92016-21.08602 0-29.146188 7.911984-8.060168 20.705852-8.060168 28.627034 0l121.463569 123.680192C770.548758 477.621397 772.295281 486.464383 769.133349 494.195481z" p-id="15076" fill="#47c5b2"></path></svg>