<?xml version="1.0" standalone="no"?><!DOCTYPE svg PUBLIC "-//W3C//DTD SVG 1.1//EN" "http://www.w3.org/Graphics/SVG/1.1/DTD/svg11.dtd"><svg t="1533383213637" class="icon" style="" viewBox="0 0 1024 1024" version="1.1" xmlns="http://www.w3.org/2000/svg" p-id="6124" xmlns:xlink="http://www.w3.org/1999/xlink" width="200" height="200"><defs><style type="text/css"></style></defs><path d="M602.339 63.279H240.312c-0.013 0-0.025 0.004-0.038 0.004h398.511c-9.031-0.166-20.906-0.231-36.446-0.004zM662.68 63.279v0.003h0.004z" p-id="6125" fill="#47c5b2"></path><path d="M873.566 69.266L757.348 183.637 642.976 69.266h-14.762L511.998 183.637 395.78 69.266h-14.756L264.807 183.637 150.434 69.266h-47.965v835.663c0 27.669 22.137 49.806 49.805 49.806h717.601c27.672 0 51.655-22.137 51.655-51.651V69.266h-47.964zM757.348 687.25c0 14.757-11.071 25.824-25.827 25.824H292.474c-14.756 0-25.823-11.066-25.823-25.824v-29.517c0-14.757 11.066-25.824 25.823-25.824h440.892c14.756 0 25.827 11.066 25.827 25.824v29.517h-1.845z m0-241.66c0 14.756-11.071 25.828-25.827 25.828H292.474c-14.756 0-25.823-11.072-25.823-25.828v-29.517c0-14.757 11.066-25.824 25.823-25.824h440.892c14.756 0 25.827 11.066 25.827 25.824v29.517h-1.845z m0 0" p-id="6126" fill="#47c5b2"></path></svg>