<?xml version="1.0" standalone="no"?><!DOCTYPE svg PUBLIC "-//W3C//DTD SVG 1.1//EN" "http://www.w3.org/Graphics/SVG/1.1/DTD/svg11.dtd"><svg t="1533383360836" class="icon" style="" viewBox="0 0 1024 1024" version="1.1" xmlns="http://www.w3.org/2000/svg" p-id="11228" xmlns:xlink="http://www.w3.org/1999/xlink" width="200" height="200"><defs><style type="text/css"></style></defs><path d="M880.347429 377.709714c-2.486857 45.348571-20.187429 82.066286-34.669715 99.766857-10.532571 12.873143-38.765714 43.300571-53.833143 59.538286L621.129143 359.131429l-86.747429 80.457142-0.146285 0.146286c-37.595429 36.278857-87.478857 38.619429-87.917715 38.619429h-0.585143c-2.048 0.146286-4.096 0.292571-6.144 0.292571-40.813714 0-80.896-30.427429-98.889142-46.08C379.026286 392.923429 519.314286 248.100571 573.44 201.142857c20.041143-17.408 61.001143-37.741714 110.445714-37.741714 51.492571 0 97.865143 21.650286 137.947429 64.365714 52.077714 55.588571 60.562286 112.201143 58.514286 149.942857zM301.787429 433.152l9.216 9.654857c2.486857 2.633143 62.025143 63.634286 128.585142 63.634286 2.633143 0 5.266286-0.146286 7.899429-0.292572 5.412571-0.292571 61.586286-3.803429 105.764571-46.226285l66.56-61.732572 94.500572 98.450286-0.146286 0.146286 86.893714 91.867428 0.292572 0.292572c12.288 12.288 11.264 36.278857-2.048 50.468571-15.213714 14.921143-37.741714 16.969143-50.176 4.388572l-113.810286-107.52-10.971428 11.702857-8.484572 8.045714 110.153143 110.299429c12.580571 12.580571 10.532571 35.108571-4.534857 50.176-7.168 7.314286-16.676571 11.849143-26.916572 12.580571-8.630857 0.731429-17.115429-2.194286-23.259428-8.192l-112.64-112.786286-19.602286 19.602286 110.884572 114.834286 0.146285 0.146285c5.997714 6.144 8.923429 14.774857 8.192 23.259429-2.048 20.918857-18.724571 37.595429-39.643428 39.497143-8.630857 0.731429-17.115429-2.194286-23.259429-8.192l-11.995428-11.995429c22.820571-23.990857 21.942857-62.025143-2.048-84.845714-11.117714-10.678857-25.892571-16.530286-41.398858-16.530286-3.803429 0-7.753143 0.292571-11.556571 1.170286 3.803429-32.914286-19.748571-62.610286-52.662857-66.413714-2.340571-0.292571-4.681143-0.438857-6.875429-0.438857-3.803429 0-7.606857 0.292571-11.264 1.024 0.292571-2.194286 0.292571-4.534857 0.292572-6.729143-0.146286-33.060571-27.062857-59.830857-60.123429-59.830857-4.534857 0-9.069714 0.438857-13.458286 1.462857 0.438857-2.779429 0.585143-5.558857 0.585143-8.338286-0.146286-33.206857-27.209143-59.977143-60.416-59.830857-15.945143 0-31.158857 6.436571-42.422857 17.700571l-53.833143 54.125715 3.949715-4.534858c-15.067429-13.165714-57.197714-51.931429-69.778286-73.581714-0.438857-0.877714-1.170286-2.048-2.048-3.364571-54.125714-89.088-45.348571-174.518857 25.307428-247.076572 50.614857-51.931429 108.397714-59.684571 148.041143-57.051428 52.516571 3.510857 94.793143 25.746286 115.126857 43.739428 6.729143 5.997714 18.285714 16.969143 34.377143 32.768-74.605714 73.581714-166.912 169.545143-172.178285 174.957715l-9.216 9.654857v-0.146286z m-0.292572 89.819429c12.434286-12.873143 32.914286-13.165714 45.787429-0.731429s13.165714 32.914286 0.731428 45.787429l-0.585143 0.585142-84.699428 85.284572c-12.288 13.019429-32.768 13.458286-45.787429 1.170286-13.019429-12.288-13.458286-32.768-1.170285-45.787429 0.292571-0.292571 0.585143-0.731429 1.024-1.024l84.699428-85.284571z m55.442286 22.674285z m17.700571 43.885715c12.434286-12.873143 32.914286-13.165714 45.787429-0.731429s13.165714 32.914286 0.731428 45.787429l-0.585142 0.585142-84.699429 85.284572c-12.580571 12.726857-33.060571 12.726857-45.787429 0.146286s-12.726857-33.060571-0.146285-45.787429l84.699428-85.284571z m70.948572 65.536c12.580571-12.726857 33.060571-12.726857 45.787428-0.146286s12.873143 33.060571 0.292572 45.787428l-84.699429 85.284572c-12.288 13.019429-32.768 13.458286-45.787428 1.170286s-13.458286-32.768-1.170286-45.787429c0.292571-0.292571 0.585143-0.731429 1.024-1.024l84.553143-85.284571z m71.241143 65.682285c12.580571-12.726857 33.060571-12.726857 45.787428-0.146285s12.726857 33.060571 0.146286 45.787428L478.061714 851.529143c-12.434286 12.873143-32.914286 13.165714-45.787428 0.877714-12.873143-12.434286-13.165714-32.914286-0.877715-45.787428l0.585143-0.585143 84.845715-85.284572z m56.466285 99.474286c12.580571 12.580571 10.825143 34.962286-4.096 49.737143s-37.156571 16.530286-49.737143 3.949714l-12.288-12.288 53.540572-53.833143 12.580571 12.434286z" p-id="11229" fill="#47c5b2"></path></svg>