<?xml version="1.0" standalone="no"?><!DOCTYPE svg PUBLIC "-//W3C//DTD SVG 1.1//EN" "http://www.w3.org/Graphics/SVG/1.1/DTD/svg11.dtd"><svg t="1533382313474" class="icon" style="" viewBox="0 0 1024 1024" version="1.1" xmlns="http://www.w3.org/2000/svg" p-id="15870" xmlns:xlink="http://www.w3.org/1999/xlink" width="200" height="200"><defs><style type="text/css"></style></defs><path d="M511.999488 948.410418c-241.017262 0-436.411441-195.392132-436.411441-436.410418 0-241.016239 195.394179-436.410418 436.411441-436.410418 241.034659 0 436.410418 195.394179 436.410418 436.410418C948.409906 753.017262 753.034147 948.410418 511.999488 948.410418zM725.648426 529.22429 522.355347 529.22429 522.355347 269.506107c0-7.063883-7.616468-12.811794-16.975627-12.811794-9.359158 0-16.939811 5.747911-16.939811 12.811794l0 291.338345c0 7.082302 7.580652 12.811794 16.939811 12.811794 8.29185 0 14.874779-4.573155 16.35141-10.515494l203.916273 0c5.498224 0 9.92914-7.598049 9.92914-16.957207S731.146651 529.22429 725.648426 529.22429z" p-id="15871" fill="#47c5b2"></path></svg>