<?xml version="1.0" standalone="no"?><!DOCTYPE svg PUBLIC "-//W3C//DTD SVG 1.1//EN" "http://www.w3.org/Graphics/SVG/1.1/DTD/svg11.dtd"><svg t="1533382024425" class="icon" style="" viewBox="0 0 1024 1024" version="1.1" xmlns="http://www.w3.org/2000/svg" p-id="5098" xmlns:xlink="http://www.w3.org/1999/xlink" width="200" height="200"><defs><style type="text/css"></style></defs><path d="M836 284c-9.12-12-30.24-14.88-42.24-5.76-12 9.12-14.88 30.24-6.24 41.76 36 50.88 53.76 114.24 53.76 189.12 0 45.12-9.12 86.88-26.88 125.76-12-2.88-21.12-2.88-33.12-2.88-81.12 0-146.88 60-146.88 132 0 12 2.88 26.88 6.24 38.88-36 14.88-72 24-110.88 24-18.24 0-30.24 14.88-30.24 30.24s14.88 30.24 30.24 30.24c57.12-2.88 110.88-14.88 161.76-42.24 9.12-2.88 12-12 14.88-18.24 2.88-9.12 0-18.24-2.88-24-9.12-12-12-24-12-36 0-38.88 38.88-72 86.88-72 12 0 24 2.88 36 6.24 14.88 6.24 30.24 0 38.88-14.88 30.24-54.24 45.12-117.12 45.12-177.12 3.36-87.36-17.28-165.12-62.4-225.12zM205.76 689.12c14.88-9.12 21.12-26.88 12-38.88-24-48-36-93.12-36-141.12 0-177.12 144-321.12 321.12-321.12 21.12 0 48 2.88 62.88 5.76s33.12-9.12 36-24-9.12-33.12-24-36c-21.12-2.88-50.88-6.24-74.88-6.24-210.24 0-381.12 170.88-381.12 381.12 0 60 12 110.88 42.24 168 6.24 9.12 18.24 14.88 26.88 14.88 6.24 0.48 9.12 0.48 14.88-2.4z" p-id="5099" fill="#ffffff"></path><path d="M242.24 437.12c0 24.96 20.16 45.12 45.12 45.12s45.12-20.16 45.12-45.12-20.16-45.12-45.12-45.12-45.12 20.16-45.12 45.12z m89.76-135.36c0 16.8 13.44 30.24 30.24 30.24s30.24-13.44 30.24-30.24-13.92-29.76-30.24-29.76-30.24 13.44-30.24 29.76z m192 390.24l278.88-522.24c9.12-24 2.88-54.24-21.12-69.12s-54.24-12-72 12l-365.76 465.6s0 2.88-2.88 2.88c-9.12 14.88-12 33.12-9.12 48 0 2.88 2.88 6.24 2.88 9.12-38.88 2.88-96 24-108 84-9.12 42.24 2.88 62.88 9.12 78.24 0 2.88 2.88 6.24 2.88 2.88l-2.88 2.88c-14.88 21.12-30.24 24-30.24 24-12 2.88-21.12 12-24 24-2.88 12 2.88 24 12 30.24 30.24 21.12 84 48 134.88 48 38.88 0 78.24-14.88 110.88-50.88 50.88-60 41.76-150.24 41.76-156 18.72-6.72 33.6-18.72 42.72-33.6zM392 613.76l330.24-422.88-249.12 470.88c-2.88 2.88-6.24 6.24-6.24 2.88L392 620v-6.24z m2.88 228.48c-36 42.24-86.88 33.12-122.88 18.24 6.24-6.24 9.12-12 14.88-18.24 21.12-30.24 9.12-54.24 2.88-66.24-6.24-9.12-9.12-21.12-6.24-41.76 6.24-26.88 41.76-33.12 57.12-36l84 45.12c0.48 23.52-2.4 68.64-29.76 98.88z" p-id="5100" fill="#ffffff"></path></svg>