<?xml version="1.0" standalone="no"?><!DOCTYPE svg PUBLIC "-//W3C//DTD SVG 1.1//EN" "http://www.w3.org/Graphics/SVG/1.1/DTD/svg11.dtd"><svg t="1533436379336" class="icon" style="" viewBox="0 0 1024 1024" version="1.1" xmlns="http://www.w3.org/2000/svg" p-id="2319" xmlns:xlink="http://www.w3.org/1999/xlink" width="200" height="200"><defs><style type="text/css"></style></defs><path d="M1024 1024H0V0h1024v1024zM548.466 598.691h180.615v-29.883H533.085c2.928-10.547 5.564-22.265 7.91-35.156h-36.036c-1.758 13.184-4.103 24.904-7.032 35.156H309.842v29.883h176.001c-25.344 47.9-87.231 78.662-185.669 92.285 8.494 12.305 15.673 23.435 21.533 33.398 103.124-18.018 168.97-57.276 197.534-117.773 31.934 57.272 96.021 95.361 192.262 114.258 5.857-9.376 14.354-21.533 25.488-36.475-91.406-7.766-154.248-36.326-188.525-85.693z m-244.777-74.707h429.786v-29.883H537.04v-41.309h164.795V422.91H537.04v-40.43h188.525v-29.883H582.522c21.826-14.354 42.113-28.564 60.865-42.627l-25.928-24.609c-18.752 16.407-39.699 32.667-62.842 48.779l16.26 18.457H453.982l23.291-23.73c-16.995-12.888-38.232-27.978-63.721-45.264l-20.215 21.973c24.022 18.313 43.578 33.985 58.667 47.021H313.357v29.883h187.646v40.43H339.725v29.883h161.279v41.309H303.689v29.882z" p-id="2320" fill="#47c5b2"></path></svg>