<?xml version="1.0" standalone="no"?><!DOCTYPE svg PUBLIC "-//W3C//DTD SVG 1.1//EN" "http://www.w3.org/Graphics/SVG/1.1/DTD/svg11.dtd"><svg t="1533382263021" class="icon" style="" viewBox="0 0 1024 1024" version="1.1" xmlns="http://www.w3.org/2000/svg" p-id="13956" xmlns:xlink="http://www.w3.org/1999/xlink" width="200" height="200"><defs><style type="text/css"></style></defs><path d="M822.844607 771.654738c104.791671-129.067564 133.408429-313.978994 58.238402-467.109604C810.105468 159.929456 669.033499 70.226434 512.589424 67.879993 254.106372 71.750137 48.361451 325.942467 112.48898 591.70839c64.920592 268.923846 355.573321 401.890206 591.877235 277.476639 51.65138 27.233248 103.303784 54.460356 154.951071 81.685417 22.312168 11.760858 44.563962-11.650341 33.44881-34.588773C869.463368 868.054275 846.153476 819.854507 822.844607 771.654738zM320.312236 584.995501c-39.349193 0-71.250764-33.233915-71.250764-74.221422 0-40.996716 31.900547-74.217329 71.250764-74.217329 39.34817 0 71.250764 33.220612 71.250764 74.217329C391.561977 551.761586 359.659383 584.995501 320.312236 584.995501zM535.050995 584.995501c-39.349193 0-71.250764-33.233915-71.250764-74.221422 0-40.996716 31.900547-74.217329 71.250764-74.217329 39.35124 0 71.253834 33.220612 71.253834 74.217329C606.304829 551.761586 574.402235 584.995501 535.050995 584.995501zM750.286058 584.995501c-39.624463 0-71.742974-33.233915-71.742974-74.221422 0-40.996716 32.119535-74.217329 71.742974-74.217329 39.625486 0 71.749114 33.220612 71.749114 74.217329C822.034149 551.761586 789.911544 584.995501 750.286058 584.995501z" fill="#4cbbe5" p-id="13957"></path></svg>