<?xml version="1.0" standalone="no"?><!DOCTYPE svg PUBLIC "-//W3C//DTD SVG 1.1//EN" "http://www.w3.org/Graphics/SVG/1.1/DTD/svg11.dtd"><svg t="1533213383991" class="icon" style="" viewBox="0 0 1356 1024" version="1.1" xmlns="http://www.w3.org/2000/svg" p-id="5328" xmlns:xlink="http://www.w3.org/1999/xlink" width="264.84375" height="200"><defs><style type="text/css"></style></defs><path d="M949.343368 271.774224c-49.610536-46.600188-118.968956-29.862653-165.328316 12.28222-106.566322-98.378175-219.996237-104.278457-357.629351-20.470367-26.250235 16.737535-40.21825 30.344309-40.82032 30.946378l-7.224835 7.104421 8.790216 4.936971c0.361242 0.240828 34.317968 19.627469 38.532455 58.521167 1.926623 53.463782-101.870179 114.754468-101.870179 114.754468l55.751646 25.768579c-7.706491 33.836312-19.747883 88.985889 10.596425 142.931326 9.392286 12.041392 23.480715 20.711195 38.773283 21.79492 12.402634 0.842897 25.527752 0.963311 36.726246 0.963311 4.696143 0 9.5127 0 14.329257 0 4.816557 0 9.633114 0 14.570085 0 106.084666 0 112.225776 23.480715 118.246472 40.21825 23.119473 64.421449 28.658514 102.713076 28.658514 103.074318l0.963311 6.502352 157.983067 0 33.715898 0c-16.376294-40.21825-99.221072-142.570085-49.369708-202.415804 34.438382-44.432738 57.557855-101.629351 63.21731-156.658514 3.130762-29.742239 1.083725-57.919097-5.779868-83.928504-6.020696-22.39699-18.302916-45.757291-31.428034-63.578551 18.904986-13.486359 64.421449-44.673565 98.137347-15.894638 66.588899 56.835372-81.761054 264.308561-96.451552 339.206021C774.261524 812.553151 985.106303 790.035748 1031.224835 687.804327c-17.580433 25.046096-175.804327 30.825964-132.455315-90.792098 22.156162-62.133584 52.259643-121.618062 64.903104-164.605833C989.561618 345.106303 981.01223 301.516463 949.343368 271.774224L949.343368 271.774224 949.343368 271.774224 949.343368 271.774224zM949.343368 271.774224" p-id="5329" fill="#f36a8b"></path></svg>