<?xml version="1.0" standalone="no"?><!DOCTYPE svg PUBLIC "-//W3C//DTD SVG 1.1//EN" "http://www.w3.org/Graphics/SVG/1.1/DTD/svg11.dtd"><svg t="1533468035196" class="icon" style="" viewBox="0 0 1024 1024" version="1.1" xmlns="http://www.w3.org/2000/svg" p-id="1381" xmlns:xlink="http://www.w3.org/1999/xlink" width="200" height="200"><defs><style type="text/css"></style></defs><path d="M317.527 1011.101l463.018-462.133c8.6-8.589 12.904-19.866 12.904-31.143 0-11.277-4.305-22.553-12.904-31.143L305.856 12.894C297.523 4.576 286.441 0 274.652 0c-11.789 0-22.866 4.581-31.199 12.899-17.204 17.168-17.204 45.107 0 62.28l443.49 442.646-431.82 430.995c-8.333 8.318-12.92 19.38-12.92 31.143s4.586 22.825 12.92 31.143c8.333 8.313 19.415 12.894 31.204 12.894 11.784 0 22.867-4.581 31.2-12.899z" fill="#515151" p-id="1382"></path></svg>