<?xml version="1.0" standalone="no"?><!DOCTYPE svg PUBLIC "-//W3C//DTD SVG 1.1//EN" "http://www.w3.org/Graphics/SVG/1.1/DTD/svg11.dtd"><svg t="1533199039710" class="icon" style="" viewBox="0 0 1032 1024" version="1.1" xmlns="http://www.w3.org/2000/svg" p-id="19237" xmlns:xlink="http://www.w3.org/1999/xlink" width="201.5625" height="200"><defs><style type="text/css"></style></defs><path d="M990.86336 908.26752h-18.67264V468.83328c0-47.48288-38.62528-86.11328-86.10816-86.11328h-192.08704V137.70752c0-47.488-38.62528-86.1184-86.11328-86.1184H146.35008c-47.488 0-86.1184 38.6304-86.1184 86.1184v770.67264h-19.0976c-17.71008 0-32.01024 14.29504-32.01024 32.01024s14.30016 32.02048 32.01024 32.02048h949.7344c17.7152 0 32.01536-14.30528 32.01536-32.02048s-14.30528-32.12288-32.02048-32.12288m-104.89344-461.62944c11.95008 0 22.08256 10.13248 22.08256 22.08768v439.54688h-214.06208V446.63808h191.97952M124.15488 137.70752c0-11.95008 10.1376-22.08768 22.08768-22.08768h461.52704c11.9552 0 22.08768 10.13248 22.08768 22.08768v770.67264H124.04736V137.70752h0.10752" p-id="19238" fill="#ffffff"></path><path d="M304.60416 329.99936H216.45824c-17.71008 0-32.01024 14.30016-32.01024 32.01536s14.30016 32.01024 32.01024 32.01024h88.1408c17.7152 0 32.01536-14.30016 32.01536-32.01024s-14.40256-32.01536-32.01024-32.01536M537.76896 329.99936H449.62816c-17.7152 0-32.01536 14.30016-32.01536 32.01536s14.30016 32.01024 32.01536 32.01024h88.1408c17.71008 0 32.01024-14.30016 32.01024-32.01024s-14.40256-32.01536-32.01024-32.01536M304.60416 481.85344H216.45824a31.96928 31.96928 0 0 0-32.01024 32.01024 31.96928 31.96928 0 0 0 32.01024 32.01536h88.1408a31.9744 31.9744 0 0 0 32.01536-32.01536c0.00512-17.71008-14.40256-32.01024-32.01024-32.01024M537.76896 481.85344H449.62816a31.96928 31.96928 0 0 0-32.01536 32.01024 31.9744 31.9744 0 0 0 32.01536 32.01536h88.1408a31.96928 31.96928 0 0 0 32.01024-32.01536 32.03584 32.03584 0 0 0-32.01024-32.01024M304.60416 633.70752H216.45824a31.96416 31.96416 0 0 0-32.01024 32.01536 31.9744 31.9744 0 0 0 32.01024 32.01024h88.1408a31.9744 31.9744 0 0 0 32.01536-32.01024 32.0256 32.0256 0 0 0-32.01024-32.01536M537.76896 633.70752H449.62816a31.96416 31.96416 0 0 0-32.01536 32.01536 31.9744 31.9744 0 0 0 32.01536 32.01024h88.1408a31.9744 31.9744 0 0 0 32.01024-32.01024 32.03072 32.03072 0 0 0-32.01024-32.01536M752.90112 619.7248h88.1408a31.9744 31.9744 0 0 0 32.01536-32.01536 31.96416 31.96416 0 0 0-32.01536-32.01024h-88.1408a31.96928 31.96928 0 0 0-32.01024 32.01024 32.04096 32.04096 0 0 0 32.01024 32.01536M841.04192 739.02592h-88.1408a31.9744 31.9744 0 0 0-32.01024 32.02048 31.96416 31.96416 0 0 0 32.01024 32.00512h88.1408a31.96416 31.96416 0 0 0 32.01536-32.00512 31.9744 31.9744 0 0 0-32.01536-32.02048" p-id="19239" fill="#ffffff"></path></svg>