<?xml version="1.0" standalone="no"?><!DOCTYPE svg PUBLIC "-//W3C//DTD SVG 1.1//EN" "http://www.w3.org/Graphics/SVG/1.1/DTD/svg11.dtd"><svg t="1533198443057" class="icon" style="" viewBox="0 0 1356 1024" version="1.1" xmlns="http://www.w3.org/2000/svg" p-id="10783" xmlns:xlink="http://www.w3.org/1999/xlink" width="264.84375" height="200"><defs><style type="text/css"></style></defs><path d="M599.902164 268.161806c0-86.457197-58.039511-223.969897-129.565381-223.969897-71.52587 0-129.565381 137.5127-129.565381 223.969897 0 86.457197 58.039511 156.417686 129.565381 156.417686C541.862653 424.579492 599.902164 354.498589 599.902164 268.161806L599.902164 268.161806zM599.902164 268.161806" p-id="10784" fill="#ffffff"></path><path d="M454.080903 428.673565l-4.696143 533.674506c0 8.91063 3.973659 16.135466 8.91063 16.135466l24.082785 0c4.936971 0 8.91063-7.224835 8.91063-16.135466L486.592662 428.673565c-5.298213 0.842897-10.716839 1.444967-16.25588 1.444967C464.797742 430.118532 459.379116 429.516463 454.080903 428.673565L454.080903 428.673565zM454.080903 428.673565" p-id="10785" fill="#ffffff"></path><path d="M886.005644 987.875823l-24.082785 0c-4.936971 0-8.91063-10.837253-8.91063-24.203198l5.298213-900.575729c0-13.245532 3.973659-24.203198 8.790216-24.203198l13.727187 0c4.816557 0 8.91063 10.837253 8.91063 24.203198l5.177799 900.575729C894.795861 977.03857 890.822201 987.875823 886.005644 987.875823L886.005644 987.875823zM886.005644 987.875823" p-id="10786" fill="#ffffff"></path><path d="M747.529633 987.875823l-24.203198 0c-4.936971 0-8.91063-10.837253-8.91063-24.203198l5.177799-900.575729c0-13.245532 3.973659-24.203198 8.91063-24.203198l13.727187 0c4.816557 0 8.790216 10.837253 8.790216 24.203198l5.298213 900.575729C756.319849 977.03857 752.34619 987.875823 747.529633 987.875823L747.529633 987.875823zM747.529633 987.875823" p-id="10787" fill="#ffffff"></path></svg>